<?xml version="1.0" encoding="utf-8"?>
<!-- Generator: Adobe Illustrator 23.0.4, SVG Export Plug-In . SVG Version: 6.00 Build 0)  -->
<svg version="1.1" id="Layer_1" xmlns="http://www.w3.org/2000/svg" xmlns:xlink="http://www.w3.org/1999/xlink" x="0px" y="0px"
	 viewBox="0 0 152.8 40" style="enable-background:new 0 0 152.8 40;" xml:space="preserve">
<style type="text/css">
	.st0{fill:#0082C3;}
</style>
<path id="Subtraction_4" class="st0" d="M152.8,40H0V0h152.8L152.8,40L152.8,40z M109,27.4L109,27.4c1.9,1.6,4.4,2.4,6.8,2.3
	c2.8,0,5.5-1,7.5-2.9c1.1-1.1,2-2.4,2.4-3.8v6.4h5V18.9l7.6,10.5h4.4V10.6h-5V21l-7.4-10.5h-4.5v6.4c-0.5-1.5-1.4-2.9-2.6-3.9
	c-2-1.8-4.6-2.8-7.2-2.8c-2.7-0.1-5.4,0.9-7.4,2.8c-1,0.9-1.7,1.9-2.3,3.1c-0.5,1.2-0.8,2.4-0.8,3.7c0,1.9,0.5,3.8,1.6,5.5h-3.8
	V10.6h-4.9v18.8H109L109,27.4L109,27.4z M49.8,10.1c-1.5,0-3,0.3-4.3,0.9c-1.5,0.7-2.8,1.7-3.8,3c-1.4,1.6-2.1,3.7-2.1,5.8
	c0,2.5,1,4.9,2.7,6.7c1.2,1.2,2.6,2.1,4.2,2.6c1.1,0.4,2.3,0.6,3.5,0.7c2.1,0,4.2-0.6,6-1.7c0.6-0.4,1.2-0.9,1.7-1.4h4.7v2.7h4.8
	V10.5h-5.2l-7.3,12c-1,1.5-2.7,2.4-4.5,2.5c-0.1,0-0.1,0-0.2,0c-1.4,0-2.7-0.6-3.6-1.6c-1-1-1.5-2.3-1.5-3.7c0.1-2.8,2.4-5,5.2-5
	c1.6,0.1,3.1,0.7,4.3,1.8c0,0,0,0,0,0c0.5,0.4,0.9,0.8,1.3,1.3l2.7-4.4l0,0c-0.4-0.4-0.8-0.8-1.2-1.1C56,11.8,55,11.2,54,10.8
	c-1.3-0.5-2.7-0.7-4-0.8L49.8,10.1z M86.4,22.2h5.1v7.2h5V10.6h-5v7.1h-5.1v-7.1h-5v18.8h5L86.4,22.2L86.4,22.2z M71.8,14.9v14.5h5
	V14.9h3.9v-4.4H68v4.4H71.8z M10.1,10.5v18.8h7.6c2.8,0,4.8-0.4,6.9-2.3c1.5-1.4,2.5-3.2,2.8-5.3v7.5h11v-4h-6.2v-3.5h5.3v-4h-5.3
	v-3.1h6.2v-4.1h-3.4l0.8-1.4h-4.1L31,10.4h-3.5v7.7c-0.2-2.1-1.3-4-2.8-5.4c-2.1-1.9-4.4-2.2-7.6-2.2L10.1,10.5z M17.1,25.2h-2V14.5
	h2c3.6,0,5.6,1.9,5.6,5.3c0.1,1.5-0.4,3-1.4,4.1C20.1,24.8,18.6,25.3,17.1,25.2L17.1,25.2z M115.9,25.1c-1.4,0-2.7-0.6-3.7-1.5
	c-1-1-1.6-2.3-1.6-3.7c0-1.3,0.6-2.6,1.6-3.5c1.1-0.9,2.4-1.5,3.8-1.4c2.8-0.1,5.1,2.1,5.2,4.9c0,1.4-0.5,2.8-1.5,3.8
	C118.6,24.6,117.3,25.1,115.9,25.1L115.9,25.1z M62.3,22.6h-2.6l2.6-4.3V22.6L62.3,22.6z"/>
</svg>
